<?xml version="1.0" encoding="utf-8"?>
<!-- Generator: Adobe Illustrator 21.0.0, SVG Export Plug-In . SVG Version: 6.00 Build 0)  -->
<svg version="1.1" id="Capa_1" xmlns="http://www.w3.org/2000/svg" xmlns:xlink="http://www.w3.org/1999/xlink" x="0px" y="0px"
	 viewBox="0 0 58 58" style="enable-background:new 0 0 58 58;" xml:space="preserve">
<style type="text/css">
	.st0{fill:#404040;}
	.st1{fill:#808080;}
	.st2{fill:#BFBFBF;}
</style>
<path class="st0" d="M12,0C9.7,0,7.8,1.8,7.5,4l0,1c0,2.2,1.8,4,4,4h1h3h2l2-4h12l-2,3.9c0,0,0,0.1,0,0.1h0.2h20.7V0H12z"/>
<path class="st1" d="M29.5,9v26.2c0,0.5-0.7,0.7-0.9,0.3L23.5,27l-5.1,8.5c-0.3,0.4-0.9,0.2-0.9-0.3V9h-6c-2.2,0-4-1.8-4-4v49
	c0,2.2,1.8,4,4,4h39V9H29.5z"/>
<path class="st2" d="M12.5,9h-1c-2.2,0-4-1.8-4-4v49c0,2.2,1.8,4,4,4h1V9z"/>
<path class="st2" d="M50.5,2h-9c-0.6,0-1,0.4-1,1s0.4,1,1,1h9V2z"/>
<path class="st2" d="M50.5,5h-8c-0.6,0-1,0.4-1,1s0.4,1,1,1h8V5z"/>
<path class="st2" d="M19.5,5l-2,4v26.2c0,0.5,0.7,0.7,0.9,0.3l5.1-8.5l5.1,8.5c0.3,0.4,0.9,0.2,0.9-0.3V9l2-4H19.5z"/>
<polygon class="st2" points="19.5,5 17.5,9 29.5,9 31.5,5 "/>
</svg>
