<?xml version="1.0" encoding="iso-8859-1"?>
<!-- Generator: Adobe Illustrator 19.0.0, SVG Export Plug-In . SVG Version: 6.00 Build 0)  -->
<svg version="1.1" id="Layer_1" xmlns="http://www.w3.org/2000/svg" xmlns:xlink="http://www.w3.org/1999/xlink" x="0px" y="0px"
	 viewBox="0 0 512.002 512.002" style="enable-background:new 0 0 512.002 512.002;" xml:space="preserve">
<path d="M279.459,281.992v-3.844c0-16.182-9.911-22.049-24.678-22.049c-5.057,0-6.878-4.248-6.878-8.496
	c0-4.45,1.821-8.699,6.878-8.699c12.339,0,21.037-3.844,21.037-22.251c0-14.767-7.08-20.835-20.228-20.835
	c-16.386,0-21.037,8.293-21.037,16.587c0,5.26-2.428,8.699-10.115,8.699c-9.507,0-11.125-2.225-11.125-9.912
	c0-13.148,9.103-34.185,42.479-34.185c23.667,0,40.659,9.304,40.659,36.006c0,16.789-6.473,29.129-16.182,33.782
	c11.935,4.654,20.633,14.16,20.633,31.354v3.844c0,32.162-20.633,44.097-46.12,44.097c-31.556,0-44.704-19.621-44.704-35.602
	c0-7.08,2.63-9.103,9.912-9.103c8.9,0,11.125,2.63,11.125,8.091c0,8.901,7.485,17.599,23.869,17.599
	C271.57,307.075,279.459,299.59,279.459,281.992z"/>
<path style="fill:#FFD039;" d="M254.264,92.825c-88.39,0-160.301,71.91-160.301,160.301s71.91,160.301,160.301,160.301
	s160.301-71.91,160.301-160.301S342.655,92.825,254.264,92.825z"/>
<path style="fill:#FFAE47;" d="M254.264,92.825c-10.226,0-20.228,0.974-29.927,2.813c81.601,6.154,145.896,74.312,145.896,157.487
	s-64.295,151.333-145.896,157.487c9.699,1.84,19.701,2.813,29.927,2.813c88.39,0,160.301-71.91,160.301-160.301
	S342.655,92.825,254.264,92.825z"/>
<path style="fill:#FF3E43;" d="M264.438,93.156c-3.366-0.212-6.757-0.333-10.174-0.333c-88.39,0-160.301,71.91-160.301,160.301
	c0,3.451,0.122,6.875,0.338,10.273h170.137L264.438,93.156L264.438,93.156z"/>
<path style="fill:#3C3B41;" d="M279.459,281.992v-3.844c0-16.182-9.911-22.049-24.678-22.049c-5.057,0-6.878-4.248-6.878-8.496
	c0-4.45,1.821-8.699,6.878-8.699c12.339,0,21.037-3.844,21.037-22.251c0-14.767-7.08-20.835-20.228-20.835
	c-16.386,0-21.037,8.293-21.037,16.587c0,5.26-2.428,8.699-10.115,8.699c-9.507,0-11.125-2.225-11.125-9.912
	c0-13.148,9.103-34.185,42.479-34.185c23.667,0,40.659,9.304,40.659,36.006c0,16.789-6.473,29.129-16.182,33.782
	c11.935,4.654,20.633,14.16,20.633,31.354v3.844c0,32.162-20.633,44.097-46.12,44.097c-31.556,0-44.704-19.621-44.704-35.602
	c0-7.08,2.63-9.103,9.912-9.103c8.9,0,11.125,2.63,11.125,8.091c0,8.901,7.485,17.599,23.869,17.599
	C271.57,307.075,279.459,299.59,279.459,281.992z"/>
<path style="fill:#E93234;" d="M503.572,247.571h-30.517c-1.389-56.071-23.792-108.658-63.441-148.61
	c-38.962-39.259-90.247-61.948-145.184-64.449V8.429c0-4.656-3.774-8.429-8.429-8.429c-4.655,0-8.429,3.773-8.429,8.429v118.402
	c0,4.656,3.774,8.429,8.429,8.429c4.655,0,8.429-3.773,8.429-8.429V51.385c50.409,2.486,97.442,23.4,133.219,59.45
	c36.495,36.773,57.153,85.145,58.539,136.736H385.17c-4.655,0-8.429,3.773-8.429,8.429s3.774,8.429,8.429,8.429h70.777
	c-5.698,102.784-88.583,185.318-191.516,190.446v-69.707c0-4.656-3.774-8.429-8.429-8.429c-4.655,0-8.429,3.773-8.429,8.429v69.84
	c-104.535-3.421-189.229-86.64-194.991-190.578h74.251c4.655,0,8.429-3.773,8.429-8.429c0-4.656-3.774-8.429-8.429-8.429H52.343
	c1.028-37.967,12.578-74.553,33.575-106.135c2.577-3.876,1.524-9.108-2.352-11.685c-3.875-2.578-9.108-1.524-11.686,2.352
	c-22.841,34.356-35.367,74.168-36.4,115.468H8.43c-4.655,0-8.429,3.773-8.429,8.429c0,4.656,3.774,8.429,8.429,8.429h27.261
	c5.789,113.236,98.048,204.01,211.881,207.447v31.696c0,4.656,3.774,8.429,8.429,8.429c4.655,0,8.429-3.773,8.429-8.429v-31.828
	c112.23-5.158,202.676-95.232,208.406-207.314h30.736c4.655,0,8.429-3.773,8.429-8.429
	C512.001,251.344,508.227,247.571,503.572,247.571z"/>
<g>
</g>
<g>
</g>
<g>
</g>
<g>
</g>
<g>
</g>
<g>
</g>
<g>
</g>
<g>
</g>
<g>
</g>
<g>
</g>
<g>
</g>
<g>
</g>
<g>
</g>
<g>
</g>
<g>
</g>
</svg>
